<svg xmlns="http://www.w3.org/2000/svg" xmlns:xlink="http://www.w3.org/1999/xlink" width="1024" zoomAndPan="magnify" viewBox="0 0 768 767.999994" height="1024" preserveAspectRatio="xMidYMid meet" version="1.0"><defs><g/><clipPath id="e5a07e30f7"><path d="M 384 0 C 171.921875 0 0 171.921875 0 384 C 0 596.078125 171.921875 768 384 768 C 596.078125 768 768 596.078125 768 384 C 768 171.921875 596.078125 0 384 0 Z M 384 0 " clip-rule="nonzero"/></clipPath></defs><g clip-path="url(#e5a07e30f7)"><rect x="-76.8" width="921.6" fill="#222222" y="-76.799999" height="921.599993" fill-opacity="1"/></g><g fill="#ffffff" fill-opacity="1"><g transform="translate(103.789054, 450.205209)"><g><path d="M 97.546875 -133.453125 C 98.753906 -135.671875 100.5625 -137.160156 102.96875 -137.921875 C 105.375 -138.679688 108.378906 -139.0625 111.984375 -139.0625 C 115.597656 -139.0625 118.507812 -138.742188 120.71875 -138.109375 C 122.9375 -137.472656 124.582031 -136.710938 125.65625 -135.828125 C 126.738281 -134.941406 127.53125 -133.613281 128.03125 -131.84375 C 128.789062 -129.8125 129.171875 -126.582031 129.171875 -122.15625 L 129.171875 -16.71875 C 129.171875 -13.675781 129.078125 -11.457031 128.890625 -10.0625 C 128.703125 -8.675781 128.101562 -7.03125 127.09375 -5.125 C 125.3125 -1.707031 120.367188 0 112.265625 0 C 107.328125 0 103.90625 -0.378906 102 -1.140625 C 100.101562 -1.898438 98.523438 -3.101562 97.265625 -4.75 C 68.765625 -42.738281 50.019531 -67.5625 41.03125 -79.21875 L 41.03125 -16.71875 C 41.03125 -13.675781 40.9375 -11.457031 40.75 -10.0625 C 40.5625 -8.675781 39.957031 -7.03125 38.9375 -5.125 C 37.164062 -1.707031 32.226562 0 24.125 0 C 16.269531 0 11.457031 -1.707031 9.6875 -5.125 C 8.675781 -7.03125 8.070312 -8.738281 7.875 -10.25 C 7.6875 -11.769531 7.59375 -13.988281 7.59375 -16.90625 L 7.59375 -122.90625 C 7.59375 -127.71875 8.191406 -131.234375 9.390625 -133.453125 C 10.597656 -135.671875 12.40625 -137.160156 14.8125 -137.921875 C 17.21875 -138.679688 20.320312 -139.0625 24.125 -139.0625 C 27.925781 -139.0625 30.929688 -138.710938 33.140625 -138.015625 C 35.359375 -137.316406 36.910156 -136.523438 37.796875 -135.640625 C 38.304688 -135.253906 39.765625 -133.609375 42.171875 -130.703125 C 68.890625 -94.347656 86.75 -70.347656 95.75 -58.703125 L 95.75 -122.90625 C 95.75 -127.71875 96.347656 -131.234375 97.546875 -133.453125 Z M 97.546875 -133.453125 "/></g></g></g><g fill="#ffffff" fill-opacity="1"><g transform="translate(240.561118, 450.205209)"><g><path d="M 7.59375 -83.390625 C 7.59375 -86.304688 7.6875 -88.492188 7.875 -89.953125 C 8.070312 -91.410156 8.613281 -93.085938 9.5 -94.984375 C 11.269531 -98.273438 16.207031 -99.921875 24.3125 -99.921875 C 30.394531 -99.921875 34.703125 -98.84375 37.234375 -96.6875 C 39.390625 -94.914062 40.53125 -92.195312 40.65625 -88.53125 C 40.78125 -87.257812 40.84375 -85.421875 40.84375 -83.015625 L 40.84375 -16.53125 C 40.84375 -13.613281 40.742188 -11.425781 40.546875 -9.96875 C 40.359375 -8.507812 39.757812 -6.832031 38.75 -4.9375 C 37.101562 -1.644531 32.226562 0 24.125 0 C 16.144531 0 11.269531 -1.707031 9.5 -5.125 C 8.613281 -7.03125 8.070312 -8.675781 7.875 -10.0625 C 7.6875 -11.457031 7.59375 -13.675781 7.59375 -16.71875 Z M 38.84375 -118.625 C 37.894531 -116.789062 36.21875 -115.492188 33.8125 -114.734375 C 31.40625 -113.972656 28.207031 -113.59375 24.21875 -113.59375 C 20.226562 -113.59375 17.03125 -113.972656 14.625 -114.734375 C 12.21875 -115.492188 10.539062 -116.820312 9.59375 -118.71875 C 8.644531 -120.625 8.070312 -122.304688 7.875 -123.765625 C 7.6875 -125.222656 7.59375 -127.40625 7.59375 -130.3125 C 7.59375 -133.226562 7.6875 -135.414062 7.875 -136.875 C 8.070312 -138.332031 8.613281 -139.945312 9.5 -141.71875 C 11.269531 -145.132812 16.207031 -146.84375 24.3125 -146.84375 C 32.289062 -146.84375 37.101562 -145.132812 38.75 -141.71875 C 39.757812 -139.820312 40.359375 -138.144531 40.546875 -136.6875 C 40.742188 -135.226562 40.84375 -133.039062 40.84375 -130.125 C 40.84375 -127.21875 40.742188 -125.035156 40.546875 -123.578125 C 40.359375 -122.117188 39.789062 -120.46875 38.84375 -118.625 Z M 38.84375 -118.625 "/></g></g></g><g fill="#ffffff" fill-opacity="1"><g transform="translate(289.001208, 450.205209)"><g><path d="M 66.484375 -50.15625 L 91.75 -29.25 C 94.914062 -26.59375 96.910156 -24.566406 97.734375 -23.171875 C 98.554688 -21.785156 98.96875 -20.457031 98.96875 -19.1875 C 98.96875 -16.144531 97.003906 -12.03125 93.078125 -6.84375 C 88.773438 -1.519531 84.976562 1.140625 81.6875 1.140625 C 78.894531 1.140625 75.03125 -0.695312 70.09375 -4.375 L 68.203125 -5.703125 C 65.285156 -8.109375 60.785156 -12.316406 54.703125 -18.328125 C 48.628906 -24.347656 44.007812 -28.625 40.84375 -31.15625 L 40.84375 -16.53125 C 40.84375 -13.613281 40.742188 -11.425781 40.546875 -9.96875 C 40.359375 -8.507812 39.757812 -6.832031 38.75 -4.9375 C 37.101562 -1.644531 32.226562 0 24.125 0 C 16.144531 0 11.269531 -1.707031 9.5 -5.125 C 8.613281 -7.03125 8.070312 -8.707031 7.875 -10.15625 C 7.6875 -11.613281 7.59375 -13.800781 7.59375 -16.71875 L 7.59375 -130.515625 C 7.59375 -133.421875 7.6875 -135.601562 7.875 -137.0625 C 8.070312 -138.519531 8.613281 -140.195312 9.5 -142.09375 C 11.269531 -145.507812 16.207031 -147.21875 24.3125 -147.21875 C 30.394531 -147.21875 34.703125 -146.144531 37.234375 -144 C 39.390625 -142.226562 40.53125 -139.441406 40.65625 -135.640625 C 40.78125 -134.492188 40.84375 -132.71875 40.84375 -130.3125 L 40.84375 -70.09375 C 43.125 -72 46.570312 -75.226562 51.1875 -79.78125 C 55.8125 -84.34375 59.265625 -87.570312 61.546875 -89.46875 L 63.828125 -91 C 68.265625 -94.414062 72.066406 -96.125 75.234375 -96.125 C 78.398438 -96.125 82.039062 -93.554688 86.15625 -88.421875 C 90.269531 -83.296875 92.328125 -79.273438 92.328125 -76.359375 C 92.328125 -73.453125 89.984375 -70.035156 85.296875 -66.109375 Z M 66.484375 -50.15625 "/></g></g></g><g fill="#ffffff" fill-opacity="1"><g transform="translate(390.820386, 450.205209)"><g><path d="M 72.5625 -89.46875 C 73.320312 -96.5625 78.328125 -100.109375 87.578125 -100.109375 C 92.515625 -100.109375 96.1875 -99.726562 98.59375 -98.96875 C 101 -98.207031 102.675781 -96.878906 103.625 -94.984375 C 104.570312 -93.085938 105.140625 -91.410156 105.328125 -89.953125 C 105.523438 -88.492188 105.625 -86.304688 105.625 -83.390625 L 105.625 -16.90625 C 105.625 -13.988281 105.523438 -11.800781 105.328125 -10.34375 C 105.140625 -8.894531 104.601562 -7.21875 103.71875 -5.3125 C 101.945312 -2.019531 97.609375 -0.375 90.703125 -0.375 C 83.804688 -0.375 79.1875 -1.226562 76.84375 -2.9375 C 74.5 -4.65625 73.140625 -7.160156 72.765625 -10.453125 C 68.078125 -3.734375 60.253906 -0.375 49.296875 -0.375 C 38.335938 -0.375 28.171875 -5.375 18.796875 -15.375 C 9.429688 -25.382812 4.75 -37.003906 4.75 -50.234375 C 4.75 -63.472656 9.460938 -75.0625 18.890625 -85 C 28.328125 -94.945312 38.6875 -99.921875 49.96875 -99.921875 C 54.269531 -99.921875 58.191406 -99.160156 61.734375 -97.640625 C 65.285156 -96.117188 67.753906 -94.691406 69.140625 -93.359375 C 70.535156 -92.035156 71.675781 -90.738281 72.5625 -89.46875 Z M 38 -49.953125 C 38 -45.773438 39.644531 -42.007812 42.9375 -38.65625 C 46.226562 -35.300781 50.21875 -33.625 54.90625 -33.625 C 59.59375 -33.625 63.484375 -35.332031 66.578125 -38.75 C 69.679688 -42.164062 71.234375 -45.929688 71.234375 -50.046875 C 71.234375 -54.171875 69.742188 -58.003906 66.765625 -61.546875 C 63.796875 -65.097656 59.804688 -66.875 54.796875 -66.875 C 49.796875 -66.875 45.742188 -65.097656 42.640625 -61.546875 C 39.546875 -58.003906 38 -54.140625 38 -49.953125 Z M 38 -49.953125 "/></g></g></g><g fill="#ffffff" fill-opacity="1"><g transform="translate(504.037231, 450.205209)"><g><path d="M 63.265625 -100.109375 C 75.921875 -100.109375 86.457031 -95.265625 94.875 -85.578125 C 103.300781 -75.890625 107.515625 -64.082031 107.515625 -50.15625 L 107.515625 -16.71875 C 107.515625 -13.800781 107.421875 -11.613281 107.234375 -10.15625 C 107.046875 -8.707031 106.507812 -7.09375 105.625 -5.3125 C 103.851562 -1.894531 98.914062 -0.1875 90.8125 -0.1875 C 81.8125 -0.1875 76.617188 -2.53125 75.234375 -7.21875 C 74.472656 -9.375 74.09375 -12.601562 74.09375 -16.90625 L 74.09375 -50.34375 C 74.09375 -55.53125 72.601562 -59.582031 69.625 -62.5 C 66.644531 -65.414062 62.65625 -66.875 57.65625 -66.875 C 52.65625 -66.875 48.601562 -65.351562 45.5 -62.3125 C 42.394531 -59.269531 40.84375 -55.28125 40.84375 -50.34375 L 40.84375 -16.71875 C 40.84375 -13.800781 40.742188 -11.613281 40.546875 -10.15625 C 40.359375 -8.707031 39.757812 -7.09375 38.75 -5.3125 C 37.101562 -1.894531 32.226562 -0.1875 24.125 -0.1875 C 16.144531 -0.1875 11.269531 -1.894531 9.5 -5.3125 C 8.613281 -7.21875 8.070312 -8.894531 7.875 -10.34375 C 7.6875 -11.800781 7.59375 -13.988281 7.59375 -16.90625 L 7.59375 -84.15625 C 7.59375 -86.9375 7.6875 -89.054688 7.875 -90.515625 C 8.070312 -91.972656 8.675781 -93.585938 9.6875 -95.359375 C 11.457031 -98.523438 16.332031 -100.109375 24.3125 -100.109375 C 32.039062 -100.109375 36.789062 -98.65625 38.5625 -95.75 C 39.832031 -93.59375 40.46875 -90.992188 40.46875 -87.953125 C 40.96875 -88.835938 42.101562 -90.101562 43.875 -91.75 C 45.65625 -93.394531 47.367188 -94.726562 49.015625 -95.75 C 53.316406 -98.65625 58.066406 -100.109375 63.265625 -100.109375 Z M 63.265625 -100.109375 "/></g></g></g><g fill="#ffffff" fill-opacity="1"><g transform="translate(619.153718, 450.205209)"><g><path d="M 37.046875 -31.34375 C 39.191406 -29.1875 40.265625 -24.753906 40.265625 -18.046875 L 40.265625 -17.28125 C 40.265625 -14.25 40.171875 -12.003906 39.984375 -10.546875 C 39.796875 -9.085938 39.132812 -7.34375 38 -5.3125 C 36.09375 -1.644531 31.304688 0.1875 23.640625 0.1875 C 15.984375 0.1875 10.921875 -1.015625 8.453125 -3.421875 C 5.984375 -5.828125 4.75 -10.382812 4.75 -17.09375 L 4.75 -17.859375 C 4.75 -20.765625 4.84375 -22.976562 5.03125 -24.5 C 5.21875 -26.019531 5.820312 -27.734375 6.84375 -29.640625 C 8.738281 -33.429688 13.515625 -35.328125 21.171875 -35.328125 C 28.835938 -35.328125 34.128906 -34 37.046875 -31.34375 Z M 37.046875 -31.34375 "/></g></g></g></svg>