<?xml version="1.0" encoding="UTF-8"?>
<svg id="Layer_1" data-name="Layer 1" xmlns="http://www.w3.org/2000/svg" viewBox="0 0 806 574">
  <defs>
    <style>
      .cls-1 {
        fill: none;
        stroke: #99c;
        stroke-miterlimit: 10;
      }
    </style>
  </defs>
  <ellipse class="cls-1" cx="525.5" cy="89.5" rx="89" ry="60"/>
  <circle class="cls-1" cx="525.5" cy="118.5" r="89"/>
  <circle class="cls-1" cx="525.5" cy="118.5" r="89"/>
  <ellipse class="cls-1" cx="525.5" cy="89.5" rx="89" ry="60"/>
  <ellipse class="cls-1" cx="525.5" cy="89.5" rx="89" ry="60"/>
  <ellipse class="cls-1" cx="525.5" cy="89.5" rx="89" ry="60"/>
  <ellipse class="cls-1" cx="525.5" cy="88.5" rx="89" ry="59"/>
  <ellipse class="cls-1" cx="525" cy="87.5" rx="88.5" ry="58"/>
  <ellipse class="cls-1" cx="524.5" cy="86.5" rx="88" ry="57"/>
  <ellipse class="cls-1" cx="523.5" cy="85.5" rx="87" ry="56"/>
  <ellipse class="cls-1" cx="522.5" cy="84" rx="86" ry="54.5"/>
  <ellipse class="cls-1" cx="521.5" cy="83" rx="85" ry="53.5"/>
  <ellipse class="cls-1" cx="520" cy="81" rx="83.5" ry="51.5"/>
  <ellipse class="cls-1" cx="518.5" cy="79" rx="82" ry="49.5"/>
  <ellipse class="cls-1" cx="516.5" cy="76.5" rx="80" ry="47"/>
  <ellipse class="cls-1" cx="514.5" cy="73.5" rx="78" ry="44"/>
  <ellipse class="cls-1" cx="512" cy="71" rx="75.5" ry="41.5"/>
  <ellipse class="cls-1" cx="509.5" cy="68.5" rx="73" ry="39"/>
  <ellipse class="cls-1" cx="507.5" cy="66" rx="71" ry="36.5"/>
  <ellipse class="cls-1" cx="505" cy="64" rx="68.5" ry="34.5"/>
  <ellipse class="cls-1" cx="503" cy="62" rx="66.5" ry="32.5"/>
  <ellipse class="cls-1" cx="500.5" cy="60" rx="64" ry="30.5"/>
  <ellipse class="cls-1" cx="497.5" cy="58" rx="61" ry="28.5"/>
  <ellipse class="cls-1" cx="495.5" cy="56.5" rx="59" ry="27"/>
  <ellipse class="cls-1" cx="493.5" cy="55.5" rx="57" ry="26"/>
  <ellipse class="cls-1" cx="491.5" cy="54" rx="55" ry="24.5"/>
  <ellipse class="cls-1" cx="489.5" cy="53" rx="53" ry="23.5"/>
  <ellipse class="cls-1" cx="487.5" cy="52" rx="51" ry="22.5"/>
  <ellipse class="cls-1" cx="485.5" cy="51" rx="49" ry="21.5"/>
  <ellipse class="cls-1" cx="483.5" cy="49.5" rx="47" ry="20"/>
  <ellipse class="cls-1" cx="481.5" cy="48.5" rx="45" ry="19"/>
  <ellipse class="cls-1" cx="479.5" cy="47" rx="43" ry="17.5"/>
  <ellipse class="cls-1" cx="477.5" cy="46" rx="41" ry="16.5"/>
  <ellipse class="cls-1" cx="475.5" cy="45" rx="39" ry="15.5"/>
  <ellipse class="cls-1" cx="473.5" cy="44" rx="37" ry="14.5"/>
  <ellipse class="cls-1" cx="472" cy="43" rx="35.5" ry="13.5"/>
  <ellipse class="cls-1" cx="470" cy="42" rx="33.5" ry="12.5"/>
  <ellipse class="cls-1" cx="468" cy="41" rx="31.5" ry="11.5"/>
  <ellipse class="cls-1" cx="466.5" cy="40" rx="30" ry="10.5"/>
  <ellipse class="cls-1" cx="464.5" cy="39.5" rx="28" ry="10"/>
  <ellipse class="cls-1" cx="463" cy="38.5" rx="26.5" ry="9"/>
  <ellipse class="cls-1" cx="461.5" cy="37.5" rx="25" ry="8"/>
  <ellipse class="cls-1" cx="459.5" cy="37" rx="23" ry="7.5"/>
  <ellipse class="cls-1" cx="458" cy="36.5" rx="21.5" ry="7"/>
  <ellipse class="cls-1" cx="456.5" cy="35.5" rx="20" ry="6"/>
  <ellipse class="cls-1" cx="455" cy="35.5" rx="18.5" ry="6"/>
  <ellipse class="cls-1" cx="453.5" cy="35" rx="17" ry="5.5"/>
  <ellipse class="cls-1" cx="452.5" cy="34" rx="16" ry="4.5"/>
  <ellipse class="cls-1" cx="451" cy="34" rx="14.5" ry="4.5"/>
  <ellipse class="cls-1" cx="450" cy="33" rx="13.5" ry="3.5"/>
  <ellipse class="cls-1" cx="448" cy="32.5" rx="11.5" ry="3"/>
  <ellipse class="cls-1" cx="447" cy="32" rx="10.5" ry="2.5"/>
  <ellipse class="cls-1" cx="445.5" cy="31.5" rx="9" ry="2"/>
  <ellipse class="cls-1" cx="444.5" cy="31" rx="8" ry="1.5"/>
  <ellipse class="cls-1" cx="443" cy="30.5" rx="6.5" ry="1"/>
  <ellipse class="cls-1" cx="442" cy="30" rx="5.5" ry=".5"/>
  <ellipse class="cls-1" cx="440.5" cy="30" rx="4" ry=".5"/>
  <ellipse class="cls-1" cx="439.5" cy="29" rx="3" ry=".5"/>
  <ellipse class="cls-1" cx="437.5" cy="29" rx="1" ry=".5"/>
  <path class="cls-1" d="M436.5,28.5v-1,2-1Z"/>
  <circle class="cls-1" cx="435" cy="28" r="1.5"/>
  <ellipse class="cls-1" cx="433" cy="27.5" rx="3.5" ry="2"/>
  <ellipse class="cls-1" cx="431" cy="27.5" rx="5.5" ry="2"/>
  <ellipse class="cls-1" cx="429.5" cy="27" rx="7" ry="2.5"/>
  <ellipse class="cls-1" cx="427.5" cy="26.5" rx="9" ry="3"/>
  <ellipse class="cls-1" cx="425.5" cy="26" rx="11" ry="3.5"/>
  <ellipse class="cls-1" cx="423.5" cy="25.5" rx="13" ry="4"/>
  <ellipse class="cls-1" cx="421.5" cy="25.5" rx="15" ry="4"/>
  <ellipse class="cls-1" cx="420" cy="24.5" rx="16.5" ry="5"/>
  <ellipse class="cls-1" cx="418" cy="24.5" rx="18.5" ry="5"/>
  <ellipse class="cls-1" cx="416" cy="24" rx="20.5" ry="5.5"/>
  <ellipse class="cls-1" cx="413.5" cy="23.5" rx="23" ry="6"/>
  <ellipse class="cls-1" cx="411.5" cy="23.5" rx="25" ry="6"/>
  <ellipse class="cls-1" cx="409.5" cy="23" rx="27" ry="6.5"/>
  <ellipse class="cls-1" cx="407" cy="22.5" rx="29.5" ry="7"/>
  <ellipse class="cls-1" cx="404.5" cy="22.5" rx="32" ry="7"/>
  <ellipse class="cls-1" cx="402" cy="22" rx="34.5" ry="7.5"/>
  <ellipse class="cls-1" cx="400" cy="21.5" rx="36.5" ry="8"/>
  <ellipse class="cls-1" cx="397.5" cy="21.5" rx="39" ry="8"/>
  <ellipse class="cls-1" cx="394.5" cy="21" rx="42" ry="8.5"/>
  <ellipse class="cls-1" cx="391.5" cy="20.5" rx="45" ry="9"/>
  <ellipse class="cls-1" cx="389.5" cy="20.5" rx="47" ry="9"/>
  <ellipse class="cls-1" cx="387" cy="20.5" rx="49.5" ry="9"/>
  <ellipse class="cls-1" cx="385" cy="20" rx="51.5" ry="9.5"/>
  <ellipse class="cls-1" cx="382.5" cy="19.5" rx="54" ry="10"/>
  <ellipse class="cls-1" cx="380.5" cy="19.5" rx="56" ry="10"/>
  <ellipse class="cls-1" cx="378.5" cy="19.5" rx="58" ry="10"/>
  <ellipse class="cls-1" cx="376.5" cy="19" rx="60" ry="10.5"/>
  <ellipse class="cls-1" cx="374" cy="19" rx="62.5" ry="10.5"/>
  <ellipse class="cls-1" cx="372" cy="19" rx="64.5" ry="10.5"/>
  <ellipse class="cls-1" cx="369.5" cy="18.5" rx="67" ry="11"/>
  <ellipse class="cls-1" cx="367.5" cy="18.5" rx="69" ry="11"/>
  <ellipse class="cls-1" cx="365.5" cy="18" rx="71" ry="11.5"/>
  <ellipse class="cls-1" cx="364" cy="18" rx="72.5" ry="11.5"/>
  <ellipse class="cls-1" cx="361.5" cy="18" rx="75" ry="11.5"/>
  <ellipse class="cls-1" cx="359.5" cy="18" rx="77" ry="11.5"/>
  <ellipse class="cls-1" cx="357.5" cy="17.5" rx="79" ry="12"/>
  <ellipse class="cls-1" cx="355.5" cy="17" rx="81" ry="12.5"/>
  <ellipse class="cls-1" cx="353.5" cy="17" rx="83" ry="12.5"/>
  <ellipse class="cls-1" cx="351" cy="17" rx="85.5" ry="12.5"/>
  <ellipse class="cls-1" cx="349.5" cy="17" rx="87" ry="12.5"/>
  <ellipse class="cls-1" cx="347.5" cy="16.5" rx="89" ry="13"/>
  <ellipse class="cls-1" cx="345" cy="16.5" rx="91.5" ry="13"/>
  <ellipse class="cls-1" cx="343.5" cy="16" rx="93" ry="13.5"/>
  <ellipse class="cls-1" cx="341.5" cy="16" rx="95" ry="13.5"/>
  <ellipse class="cls-1" cx="340" cy="16" rx="96.5" ry="13.5"/>
  <ellipse class="cls-1" cx="337.5" cy="16" rx="99" ry="13.5"/>
  <ellipse class="cls-1" cx="336" cy="16" rx="100.5" ry="13.5"/>
  <ellipse class="cls-1" cx="334" cy="16" rx="102.5" ry="13.5"/>
  <ellipse class="cls-1" cx="332" cy="15.5" rx="104.5" ry="14"/>
  <ellipse class="cls-1" cx="330" cy="15.5" rx="106.5" ry="14"/>
  <ellipse class="cls-1" cx="328.5" cy="15.5" rx="108" ry="14"/>
  <ellipse class="cls-1" cx="327" cy="15.5" rx="109.5" ry="14"/>
  <ellipse class="cls-1" cx="325.5" cy="15.5" rx="111" ry="14"/>
  <ellipse class="cls-1" cx="323.5" cy="15" rx="113" ry="14.5"/>
  <ellipse class="cls-1" cx="322" cy="15" rx="114.5" ry="14.5"/>
  <ellipse class="cls-1" cx="320.5" cy="15" rx="116" ry="14.5"/>
  <ellipse class="cls-1" cx="319" cy="15" rx="117.5" ry="14.5"/>
  <ellipse class="cls-1" cx="317" cy="15" rx="119.5" ry="14.5"/>
  <ellipse class="cls-1" cx="315.5" cy="15" rx="121" ry="14.5"/>
  <ellipse class="cls-1" cx="313.5" cy="15" rx="123" ry="14.5"/>
  <ellipse class="cls-1" cx="312" cy="15" rx="124.5" ry="14.5"/>
  <ellipse class="cls-1" cx="311" cy="15" rx="125.5" ry="14.5"/>
  <ellipse class="cls-1" cx="309.5" cy="15" rx="127" ry="14.5"/>
  <ellipse class="cls-1" cx="308.5" cy="15" rx="128" ry="14.5"/>
  <ellipse class="cls-1" cx="306.5" cy="15" rx="130" ry="14.5"/>
  <ellipse class="cls-1" cx="305.5" cy="15" rx="131" ry="14.5"/>
  <ellipse class="cls-1" cx="304.5" cy="15" rx="132" ry="14.5"/>
  <ellipse class="cls-1" cx="303" cy="15" rx="133.5" ry="14.5"/>
  <ellipse class="cls-1" cx="302" cy="15" rx="134.5" ry="14.5"/>
  <ellipse class="cls-1" cx="301" cy="15" rx="135.5" ry="14.5"/>
  <ellipse class="cls-1" cx="299.5" cy="15" rx="137" ry="14.5"/>
  <ellipse class="cls-1" cx="298" cy="15" rx="138.5" ry="14.5"/>
  <ellipse class="cls-1" cx="297" cy="15" rx="139.5" ry="14.5"/>
  <ellipse class="cls-1" cx="296" cy="15" rx="140.5" ry="14.5"/>
  <ellipse class="cls-1" cx="295" cy="15" rx="141.5" ry="14.5"/>
  <ellipse class="cls-1" cx="293.5" cy="15" rx="143" ry="14.5"/>
  <ellipse class="cls-1" cx="292.5" cy="15" rx="144" ry="14.5"/>
  <ellipse class="cls-1" cx="290.5" cy="15" rx="146" ry="14.5"/>
  <ellipse class="cls-1" cx="289.5" cy="15" rx="147" ry="14.5"/>
  <ellipse class="cls-1" cx="287.5" cy="15.5" rx="149" ry="14"/>
  <ellipse class="cls-1" cx="286" cy="15.5" rx="150.5" ry="14"/>
  <ellipse class="cls-1" cx="284" cy="15.5" rx="152.5" ry="14"/>
  <ellipse class="cls-1" cx="282" cy="16" rx="154.5" ry="13.5"/>
  <ellipse class="cls-1" cx="279.5" cy="16" rx="157" ry="13.5"/>
  <ellipse class="cls-1" cx="277.5" cy="16" rx="159" ry="13.5"/>
  <ellipse class="cls-1" cx="274.5" cy="16.5" rx="162" ry="13"/>
  <ellipse class="cls-1" cx="272.5" cy="17" rx="164" ry="12.5"/>
  <ellipse class="cls-1" cx="270" cy="17" rx="166.5" ry="12.5"/>
  <ellipse class="cls-1" cx="268" cy="17" rx="168.5" ry="12.5"/>
  <ellipse class="cls-1" cx="265.5" cy="17.5" rx="171" ry="12"/>
  <ellipse class="cls-1" cx="264" cy="18" rx="172.5" ry="11.5"/>
  <ellipse class="cls-1" cx="261.5" cy="18" rx="175" ry="11.5"/>
  <ellipse class="cls-1" cx="260" cy="19" rx="176.5" ry="10.5"/>
  <ellipse class="cls-1" cx="257.5" cy="19.5" rx="179" ry="10"/>
  <ellipse class="cls-1" cx="255.5" cy="20" rx="181" ry="9.5"/>
  <ellipse class="cls-1" cx="253" cy="21" rx="183.5" ry="8.5"/>
  <ellipse class="cls-1" cx="251" cy="21.5" rx="185.5" ry="8"/>
  <ellipse class="cls-1" cx="249" cy="22.5" rx="187.5" ry="7"/>
  <ellipse class="cls-1" cx="247.5" cy="23.5" rx="189" ry="6"/>
  <ellipse class="cls-1" cx="246" cy="24" rx="190.5" ry="5.5"/>
  <ellipse class="cls-1" cx="244.5" cy="25" rx="192" ry="4.5"/>
  <ellipse class="cls-1" cx="242.5" cy="26.5" rx="194" ry="3"/>
  <ellipse class="cls-1" cx="240" cy="28" rx="196.5" ry="1.5"/>
  <path class="cls-1" d="M39.5,29.5h397H39.5Z"/>
  <ellipse class="cls-1" cx="236" cy="31.5" rx="200.5" ry="2"/>
  <ellipse class="cls-1" cx="233.5" cy="34" rx="203" ry="4.5"/>
  <ellipse class="cls-1" cx="232" cy="36.5" rx="204.5" ry="7"/>
  <ellipse class="cls-1" cx="230" cy="39" rx="206.5" ry="9.5"/>
  <ellipse class="cls-1" cx="228.5" cy="41.5" rx="208" ry="12"/>
  <ellipse class="cls-1" cx="227.5" cy="43.5" rx="209" ry="14"/>
  <ellipse class="cls-1" cx="226" cy="46" rx="210.5" ry="16.5"/>
  <ellipse class="cls-1" cx="224.5" cy="48.5" rx="212" ry="19"/>
  <ellipse class="cls-1" cx="223.5" cy="51" rx="213" ry="21.5"/>
  <ellipse class="cls-1" cx="222.5" cy="53" rx="214" ry="23.5"/>
  <ellipse class="cls-1" cx="221.5" cy="56" rx="215" ry="26.5"/>
  <ellipse class="cls-1" cx="220.5" cy="59" rx="216" ry="29.5"/>
  <ellipse class="cls-1" cx="220" cy="62" rx="216.5" ry="32.5"/>
  <ellipse class="cls-1" cx="220" cy="65" rx="216.5" ry="35.5"/>
  <ellipse class="cls-1" cx="219" cy="68" rx="217.5" ry="38.5"/>
  <ellipse class="cls-1" cx="219" cy="71" rx="217.5" ry="41.5"/>
  <ellipse class="cls-1" cx="218.5" cy="74" rx="218" ry="44.5"/>
  <ellipse class="cls-1" cx="218.5" cy="77.5" rx="218" ry="48"/>
  <ellipse class="cls-1" cx="219" cy="81" rx="217.5" ry="51.5"/>
  <ellipse class="cls-1" cx="219.5" cy="85" rx="217" ry="55.5"/>
  <ellipse class="cls-1" cx="220.5" cy="89.5" rx="216" ry="60"/>
  <ellipse class="cls-1" cx="221" cy="94" rx="215.5" ry="64.5"/>
  <ellipse class="cls-1" cx="221.5" cy="98" rx="215" ry="68.5"/>
  <ellipse class="cls-1" cx="222.5" cy="102.5" rx="214" ry="73"/>
  <ellipse class="cls-1" cx="223.5" cy="108" rx="213" ry="78.5"/>
  <ellipse class="cls-1" cx="225.5" cy="113" rx="211" ry="83.5"/>
  <ellipse class="cls-1" cx="227.5" cy="118.5" rx="209" ry="89"/>
  <ellipse class="cls-1" cx="230.5" cy="124.5" rx="206" ry="95"/>
  <ellipse class="cls-1" cx="234" cy="131.5" rx="202.5" ry="102"/>
  <ellipse class="cls-1" cx="237.5" cy="137.5" rx="199" ry="108"/>
  <ellipse class="cls-1" cx="242.5" cy="145.5" rx="194" ry="116"/>
  <ellipse class="cls-1" cx="246.5" cy="152" rx="190" ry="122.5"/>
  <ellipse class="cls-1" cx="253" cy="159.5" rx="183.5" ry="130"/>
  <ellipse class="cls-1" cx="258.5" cy="166" rx="178" ry="136.5"/>
  <ellipse class="cls-1" cx="265" cy="171" rx="171.5" ry="141.5"/>
  <ellipse class="cls-1" cx="272.5" cy="176" rx="164" ry="146.5"/>
  <ellipse class="cls-1" cx="285" cy="182" rx="151.5" ry="152.5"/>
  <ellipse class="cls-1" cx="298" cy="185.5" rx="138.5" ry="156"/>
  <ellipse class="cls-1" cx="314.5" cy="189.5" rx="122" ry="160"/>
  <ellipse class="cls-1" cx="337" cy="192.5" rx="99.5" ry="163"/>
  <ellipse class="cls-1" cx="360.5" cy="193" rx="76" ry="163.5"/>
  <ellipse class="cls-1" cx="392.5" cy="192" rx="44" ry="162.5"/>
  <ellipse class="cls-1" cx="423.5" cy="186.5" rx="13" ry="157"/>
  <ellipse class="cls-1" cx="455" cy="179" rx="18.5" ry="149.5"/>
  <ellipse class="cls-1" cx="484.5" cy="171.5" rx="48" ry="142"/>
  <ellipse class="cls-1" cx="512" cy="162.5" rx="75.5" ry="133"/>
  <ellipse class="cls-1" cx="534.5" cy="154.5" rx="98" ry="125"/>
  <circle class="cls-1" cx="555.5" cy="148.5" r="119"/>
  <ellipse class="cls-1" cx="575" cy="144.5" rx="138.5" ry="115"/>
  <ellipse class="cls-1" cx="589.5" cy="143.5" rx="153" ry="114"/>
  <ellipse class="cls-1" cx="601" cy="144" rx="164.5" ry="114.5"/>
  <ellipse class="cls-1" cx="609" cy="147" rx="172.5" ry="117.5"/>
  <ellipse class="cls-1" cx="614.5" cy="151" rx="178" ry="121.5"/>
  <ellipse class="cls-1" cx="618" cy="156.5" rx="181.5" ry="127"/>
  <ellipse class="cls-1" cx="620" cy="163" rx="183.5" ry="133.5"/>
  <ellipse class="cls-1" cx="620.5" cy="171" rx="184" ry="141.5"/>
  <ellipse class="cls-1" cx="621" cy="178" rx="184.5" ry="148.5"/>
  <ellipse class="cls-1" cx="620.5" cy="183.5" rx="184" ry="154"/>
  <ellipse class="cls-1" cx="619.5" cy="188.5" rx="183" ry="159"/>
  <ellipse class="cls-1" cx="618" cy="193.5" rx="181.5" ry="164"/>
  <ellipse class="cls-1" cx="616" cy="196.5" rx="179.5" ry="167"/>
  <ellipse class="cls-1" cx="613" cy="200" rx="176.5" ry="170.5"/>
  <ellipse class="cls-1" cx="609.5" cy="203.5" rx="173" ry="174"/>
  <ellipse class="cls-1" cx="605.5" cy="206" rx="169" ry="176.5"/>
  <ellipse class="cls-1" cx="601" cy="208.5" rx="164.5" ry="179"/>
  <ellipse class="cls-1" cx="594.5" cy="211" rx="158" ry="181.5"/>
  <ellipse class="cls-1" cx="588" cy="215" rx="151.5" ry="185.5"/>
  <ellipse class="cls-1" cx="579" cy="219.5" rx="142.5" ry="190"/>
  <ellipse class="cls-1" cx="571" cy="223.5" rx="134.5" ry="194"/>
  <ellipse class="cls-1" cx="562" cy="228" rx="125.5" ry="198.5"/>
  <ellipse class="cls-1" cx="553.5" cy="232.5" rx="117" ry="203"/>
  <ellipse class="cls-1" cx="545" cy="237" rx="108.5" ry="207.5"/>
  <ellipse class="cls-1" cx="536" cy="241.5" rx="99.5" ry="212"/>
  <ellipse class="cls-1" cx="527.5" cy="245.5" rx="91" ry="216"/>
  <ellipse class="cls-1" cx="517" cy="250.5" rx="80.5" ry="221"/>
  <ellipse class="cls-1" cx="506.5" cy="255.5" rx="70" ry="226"/>
  <ellipse class="cls-1" cx="495" cy="260.5" rx="58.5" ry="231"/>
  <ellipse class="cls-1" cx="481" cy="265" rx="44.5" ry="235.5"/>
  <ellipse class="cls-1" cx="467" cy="269.5" rx="30.5" ry="240"/>
  <ellipse class="cls-1" cx="454" cy="273" rx="17.5" ry="243.5"/>
  <ellipse class="cls-1" cx="441" cy="275" rx="4.5" ry="245.5"/>
  <ellipse class="cls-1" cx="428.5" cy="275.5" rx="8" ry="246"/>
  <ellipse class="cls-1" cx="414.5" cy="275.5" rx="22" ry="246"/>
  <ellipse class="cls-1" cx="399" cy="273.5" rx="37.5" ry="244"/>
  <ellipse class="cls-1" cx="386.5" cy="272.5" rx="50" ry="243"/>
  <ellipse class="cls-1" cx="371.5" cy="270.5" rx="65" ry="241"/>
  <ellipse class="cls-1" cx="358.5" cy="269" rx="78" ry="239.5"/>
  <ellipse class="cls-1" cx="346.5" cy="268" rx="90" ry="238.5"/>
  <ellipse class="cls-1" cx="338.5" cy="268" rx="98" ry="238.5"/>
  <ellipse class="cls-1" cx="333" cy="269" rx="103.5" ry="239.5"/>
  <ellipse class="cls-1" cx="328" cy="270.5" rx="108.5" ry="241"/>
  <ellipse class="cls-1" cx="322.5" cy="272" rx="114" ry="242.5"/>
  <ellipse class="cls-1" cx="319" cy="274.5" rx="117.5" ry="245"/>
  <ellipse class="cls-1" cx="317" cy="276.5" rx="119.5" ry="247"/>
  <ellipse class="cls-1" cx="317.5" cy="278.5" rx="119" ry="249"/>
  <ellipse class="cls-1" cx="321" cy="281.5" rx="115.5" ry="252"/>
  <ellipse class="cls-1" cx="329" cy="286.5" rx="107.5" ry="257"/>
  <ellipse class="cls-1" cx="341.5" cy="292.5" rx="95" ry="263"/>
  <ellipse class="cls-1" cx="354.5" cy="296.5" rx="82" ry="267"/>
  <ellipse class="cls-1" cx="370.5" cy="300" rx="66" ry="270.5"/>
  <ellipse class="cls-1" cx="388.5" cy="301.5" rx="48" ry="272"/>
  <ellipse class="cls-1" cx="411.5" cy="300" rx="25" ry="270.5"/>
  <ellipse class="cls-1" cx="433.5" cy="296" rx="3" ry="266.5"/>
  <ellipse class="cls-1" cx="453.5" cy="288.5" rx="17" ry="259"/>
  <ellipse class="cls-1" cx="475.5" cy="279" rx="39" ry="249.5"/>
  <ellipse class="cls-1" cx="497" cy="266" rx="60.5" ry="236.5"/>
  <ellipse class="cls-1" cx="518" cy="251.5" rx="81.5" ry="222"/>
  <ellipse class="cls-1" cx="534" cy="240.5" rx="97.5" ry="211"/>
  <ellipse class="cls-1" cx="549" cy="230" rx="112.5" ry="200.5"/>
  <ellipse class="cls-1" cx="560.5" cy="222" rx="124" ry="192.5"/>
  <ellipse class="cls-1" cx="570.5" cy="216" rx="134" ry="186.5"/>
  <ellipse class="cls-1" cx="577.5" cy="213" rx="141" ry="183.5"/>
  <ellipse class="cls-1" cx="580" cy="211.5" rx="143.5" ry="182"/>
  <ellipse class="cls-1" cx="580" cy="211" rx="143.5" ry="181.5"/>
  <ellipse class="cls-1" cx="580" cy="211" rx="143.5" ry="181.5"/>
  <ellipse class="cls-1" cx="580" cy="211" rx="143.5" ry="181.5"/>
  <ellipse class="cls-1" cx="580" cy="211" rx="143.5" ry="181.5"/>
  <ellipse class="cls-1" cx="580" cy="211" rx="143.5" ry="181.5"/>
  <ellipse class="cls-1" cx="580" cy="211" rx="143.5" ry="181.5"/>
  <ellipse class="cls-1" cx="580" cy="211" rx="143.5" ry="181.5"/>
  <ellipse class="cls-1" cx="580" cy="211" rx="143.5" ry="181.5"/>
  <ellipse class="cls-1" cx="580" cy="211" rx="143.5" ry="181.5"/>
  <ellipse class="cls-1" cx="580" cy="211" rx="143.5" ry="181.5"/>
</svg>